<mxfile host="app.diagrams.net" modified="2024-06-27T04:30:52.121Z" agent="Mozilla/5.0 (Windows NT 10.0; Win64; x64) AppleWebKit/537.36 (KHTML, like Gecko) Chrome/127.0.0.0 Safari/537.36" version="24.6.3" etag="pEf9WNfB761dnck2AkE5" type="github">
  <diagram name="第 1 页" id="JW4piEQdtHTqW6cFZVVg">
    <mxGraphModel>
      <root>
        <mxCell id="0" />
        <mxCell id="1" parent="0" />
      </root>
    </mxGraphModel>
  </diagram>
</mxfile>
